<svg width="36" height="33" viewBox="0 0 36 33" fill="none" xmlns="http://www.w3.org/2000/svg">
<path d="M31.7778 0.5H3.77778C1.69422 0.5 0 2.09467 0 4.05556V28.9444C0 30.9053 1.69422 32.5 3.77778 32.5H31.7778C33.8613 32.5 35.5556 30.9053 35.5556 28.9444V4.05556C35.5556 2.09467 33.8613 0.5 31.7778 0.5ZM31.7778 28.9444H3.77778C3.67644 28.9444 3.60711 28.916 3.57689 28.916C3.56444 28.916 3.55733 28.9196 3.55556 28.9302L3.53422 4.13733C3.54667 4.11956 3.62667 4.05556 3.77778 4.05556H31.7778C31.9182 4.05733 31.9947 4.10533 32 4.06978L32.0213 28.8627C32.0089 28.8804 31.9289 28.9444 31.7778 28.9444Z" fill="white"/>
<path d="M7.11084 7.61111H17.7775V18.2778H7.11084V7.61111ZM19.5553 21.8333H7.11084V25.3889H19.5553H21.3331H28.4442V21.8333H21.3331H19.5553ZM21.3331 14.7222H28.4442V18.2778H21.3331V14.7222ZM21.3331 7.61111H28.4442V11.1667H21.3331V7.61111Z" fill="white"/>
</svg>
