<svg width="19" height="17" viewBox="0 0 19 17" fill="none" xmlns="http://www.w3.org/2000/svg">
<path d="M17.5 7.00146H3.66333L7.89833 1.91479C8.09636 1.67654 8.19163 1.36938 8.16319 1.06088C8.13475 0.752386 7.98492 0.467823 7.74667 0.269794C7.50841 0.071766 7.20125 -0.0235063 6.89276 0.00493675C6.58426 0.0333798 6.29969 0.183208 6.10167 0.421461L0.268333 7.42146C0.229087 7.47714 0.193992 7.53563 0.163333 7.59646C0.163333 7.6548 0.163334 7.6898 0.0816669 7.74813C0.0287859 7.8819 0.00109797 8.02429 0 8.16813C0.00109797 8.31197 0.0287859 8.45436 0.0816669 8.58813C0.0816669 8.64646 0.0816665 8.68146 0.163333 8.73979C0.193992 8.80062 0.229087 8.85912 0.268333 8.91479L6.10167 15.9148C6.21136 16.0465 6.34872 16.1524 6.50399 16.225C6.65925 16.2976 6.8286 16.3351 7 16.3348C7.27259 16.3353 7.53677 16.2404 7.74667 16.0665C7.8648 15.9685 7.96245 15.8482 8.03403 15.7125C8.10561 15.5768 8.1497 15.4282 8.16379 15.2754C8.17788 15.1226 8.16168 14.9685 8.11613 14.822C8.07058 14.6755 7.99657 14.5394 7.89833 14.4215L3.66333 9.33479H17.5C17.8094 9.33479 18.1062 9.21188 18.325 8.99309C18.5438 8.77429 18.6667 8.47755 18.6667 8.16813C18.6667 7.85871 18.5438 7.56196 18.325 7.34317C18.1062 7.12438 17.8094 7.00146 17.5 7.00146Z" fill="white"/>
</svg>
